<?xml version="1.0" standalone="no"?>
<!DOCTYPE svg PUBLIC "-//W3C//DTD SVG 20010904//EN"
 "http://www.w3.org/TR/2001/REC-SVG-20010904/DTD/svg10.dtd">
<svg version="1.0" xmlns="http://www.w3.org/2000/svg"
 width="480.000000pt" height="480.000000pt" viewBox="0 0 480.000000 480.000000"
 preserveAspectRatio="xMidYMid meet">
<metadata>
Created by potrace 1.14, written by Peter Selinger 2001-2017
</metadata>
<g transform="translate(0.000000,480.000000) scale(0.100000,-0.100000)"
fill="#000000" stroke="none">
<path d="M2120 4784 c-424 -50 -829 -212 -1170 -468 -118 -88 -318 -282 -415
-401 -289 -357 -465 -781 -520 -1253 -62 -540 79 -1114 386 -1572 516 -771
1425 -1176 2334 -1041 795 118 1478 625 1817 1350 203 432 272 937 192 1406
-112 663 -484 1230 -1054 1608 -194 129 -477 253 -709 312 -281 70 -589 91
-861 59z m491 -469 c650 -76 1213 -474 1499 -1060 467 -956 72 -2103 -885
-2569 -371 -181 -811 -238 -1212 -156 -749 153 -1332 726 -1497 1471 -92 420
-42 852 145 1239 190 394 497 702 893 895 334 163 688 223 1057 180z"/>
<path d="M2255 3796 c-174 -55 -299 -197 -328 -372 -6 -38 -11 -70 -12 -71 0
-1 -22 8 -48 21 -204 104 -469 12 -573 -198 -63 -129 -63 -261 1 -393 108
-219 392 -304 605 -180 110 64 192 186 215 319 l6 38 49 -25 c141 -71 289 -71
430 0 55 28 51 30 65 -50 16 -92 92 -205 179 -264 51 -35 135 -66 201 -75 169
-21 364 89 439 247 123 260 -37 566 -323 618 -86 15 -184 1 -259 -37 -26 -13
-48 -24 -49 -24 -2 0 -3 15 -3 33 0 74 -45 186 -103 261 -47 59 -141 123 -214
146 -75 23 -214 26 -278 6z m242 -205 c132 -60 192 -229 127 -359 -68 -137
-225 -188 -362 -118 -193 98 -185 385 13 477 55 25 165 25 222 0z m-710 -400
c83 -42 127 -116 127 -211 0 -78 -25 -132 -81 -179 -154 -128 -384 -22 -386
177 -1 177 184 293 340 213z m1413 -1 c54 -28 97 -82 116 -147 14 -48 15 -65
4 -110 -43 -196 -296 -254 -417 -95 -103 135 -34 330 132 373 43 11 122 1 165
-21z"/>
<path d="M2227 2494 c-297 -66 -525 -280 -609 -571 -33 -112 -32 -314 0 -427
78 -270 288 -481 557 -558 105 -30 314 -32 415 -5 454 125 708 601 555 1040
-86 245 -299 443 -550 512 -86 24 -283 29 -368 9z m307 -204 c113 -29 190 -73
277 -160 238 -236 238 -603 0 -841 -245 -244 -619 -238 -858 15 -172 181 -210
433 -102 665 31 66 54 99 116 161 156 155 361 213 567 160z"/>
</g>
</svg>
